# xmcd
#
# Track frame offsets: 
#        150
#        34675
#        55040
#        74190
#        100260
#        140585
#        158735
#        180780
#        197485
#
# Disc length: 3123 seconds
#
# Revision: 4
# Processed by: cddbd v1.5.2PL0 Copyright (c) Steve Scherf et al.
# Submitted via: ExactAudioCopy v0.95b4
#
DISCID=750c3109
DTITLE=The Concord All Stars - Take 8 [Fujitsu-Concord jazz festival i
DTITLE=n japan 1987 Vol: III]
DYEAR=1988
DGENRE=Jazz
TTITLE0=Dynaflow 
TTITLE1=The Glory Of Love
TTITLE2=Too Late Now 
TTITLE3=Have You Met Miss Jones? 
TTITLE4=Swingin' The Blues
TTITLE5=The Very Thought Of You
TTITLE6=Stella By Starlight
TTITLE7=Who Can I Turn To (When Nobody Needs Me)
TTITLE8=Lover Come Back To Me!
EXTD=YEAR: 1988
EXTT0=
EXTT1=
EXTT2=
EXTT3=
EXTT4=
EXTT5=
EXTT6=
EXTT7=
EXTT8=
PLAYORDER=
